<?xml version="1.0" encoding="utf-8"?>
<!-- Generator: Adobe Illustrator 16.0.0, SVG Export Plug-In . SVG Version: 6.00 Build 0)  -->
<!DOCTYPE svg PUBLIC "-//W3C//DTD SVG 1.1//EN" "http://www.w3.org/Graphics/SVG/1.1/DTD/svg11.dtd">
<svg version="1.1" id="Layer_1" xmlns="http://www.w3.org/2000/svg" xmlns:xlink="http://www.w3.org/1999/xlink" x="0px" y="0px"
	 width="48px" height="40px" viewBox="0 0 48 40" enable-background="new 0 0 48 40" xml:space="preserve">
<path fill="#FFFFFF" d="M29.439,0.24C21.336,0.236,12.88,2.062,4.346,4.43c-1.083,0.217-2.141,0.927-2.7,1.804
	C1.131,7.059,0.946,7.89,0.784,8.76c-0.83,4.645-0.728,9.207-0.555,14.262c0.037,1.156,0.21,2.528,0.75,3.361
	c0.564,0.844,1.531,1.377,2.686,1.553c1.484,0.226,2.962,0.395,4.44,0.551l-0.327,9.125c-0.043,0.648,0.235,1.274,0.744,1.677
	c0.395,0.3,0.835,0.435,1.286,0.467c0.902,0.068,1.96-0.317,2.487-1.317c2.301-4.433,3.747-6.389,6.626-9.332
	c7.511,0.184,14.065-0.233,21.488-0.782c2.624-0.068,4.424-2.214,4.899-3.927c1.426-4.439,1.646-9.919,1.797-15.459
	c0.064-2.197-0.697-4.352-2.047-5.491c-1.281-1.04-2.834-1.418-4.256-1.803C36.852,0.748,32.898,0.267,29.439,0.24z M40.236,3.713
	c1.424,0.386,2.68,0.76,3.471,1.402c1.322,1.405,1.279,2.34,1.26,3.856c-0.148,5.373-0.406,10.588-1.619,14.54
	c-0.523,1.474-1.434,2.523-3.154,2.683c-7.562,0.56-14.123,0.99-21.723,0.774c-0.299-0.009-0.589,0.105-0.8,0.317
	c-3.194,3.224-4.828,5.466-7.261,10.15c-0.057,0.107-0.18,0.172-0.33,0.184c-0.102-0.006-0.143-0.084-0.15-0.155l0.33-9.896
	c0.02-0.533-0.421-1.043-0.952-1.102c-1.77-0.172-3.535-0.383-5.308-0.65c-0.762-0.116-1.043-0.324-1.252-0.635
	c-0.363-0.865-0.354-1.4-0.383-2.233c-0.17-5.009-0.253-9.387,0.516-13.742c0.071-0.645,0.312-1.304,0.568-1.854
	c0.424-0.663,1.074-0.76,1.725-0.941c8.346-2.304,16.512-4.029,24.2-4.034C33.141,2.514,37.1,2.892,40.236,3.713L40.236,3.713z
	 M11.407,12.2c-1.15,1.379-1.035,3.248-0.147,4.502c0.464,0.655,1.188,1.183,2.07,1.302c1.144,0.094,1.87-0.369,2.653-0.901
	c1.42-1.235,1.564-3.387,0.484-4.942c-0.55-0.792-1.428-1.268-2.326-1.3C12.911,10.873,12.076,11.421,11.407,12.2z M23.845,11.076
	c-1.145,0.037-2.071,0.83-2.637,1.686c-0.647,0.979-1.025,2.204-0.501,3.406c1.007,2.31,4.486,2.282,5.875-0.067
	c0.641-1.082,0.477-2.312,0-3.205c-0.475-0.893-1.191-1.62-2.236-1.786C24.181,11.083,24.013,11.071,23.845,11.076z M33.943,11.293
	c-0.359-0.011-0.72,0.028-1.068,0.117c-1.377,0.367-2.548,1.788-2.37,3.606c0.091,0.914,0.511,1.806,1.269,2.42
	c0.759,0.615,1.859,0.89,3.021,0.652c1.335-0.274,2.161-1.349,2.437-2.388c0.276-1.038,0.207-2.096-0.434-2.954
	C36.088,11.796,35.016,11.318,33.943,11.293z M14.047,12.996c0.257,0.002,0.46,0.084,0.668,0.384
	c0.467,0.674,0.337,1.694-0.134,2.103c-0.47,0.409-0.762,0.446-0.968,0.418c-0.205-0.028-0.413-0.17-0.6-0.434
	c-0.357-0.503-0.462-1.318,0.007-1.9C13.27,13.236,13.728,13.029,14.047,12.996z M23.995,13.23c0.04,0.006,0.487,0.266,0.7,0.667
	c0.215,0.402,0.255,0.775,0.051,1.119c-0.605,1.023-1.892,0.747-2.086,0.3c-0.074-0.169-0.019-0.852,0.334-1.385
	C23.346,13.398,23.789,13.197,23.995,13.23z M35.078,14.014c0.064,0.087,0.225,0.671,0.1,1.136c-0.123,0.464-0.324,0.75-0.818,0.85
	c-0.631,0.13-0.984,0-1.25-0.216c-0.268-0.216-0.446-0.58-0.484-0.968c-0.096-0.965,0.252-1.19,0.8-1.336
	C34.066,13.323,34.789,13.597,35.078,14.014z"/>
</svg>
